<svg width="34" height="29" viewBox="0 0 34 29" fill="none" xmlns="http://www.w3.org/2000/svg">
<path d="M30.0045 0.251385C30.0564 0.315784 30.0951 0.389761 30.1184 0.469087C30.1417 0.548413 30.149 0.631532 30.14 0.713691C30.131 0.79585 30.1059 0.875438 30.066 0.947905C30.0262 1.02037 29.9724 1.0843 29.9077 1.13602L23.6536 6.16714C23.5776 6.22717 23.4889 6.2693 23.3942 6.29035C23.2995 6.31141 23.2013 6.31085 23.1069 6.28872L17.122 4.83389L11.1118 8.93844C11.0659 8.97178 11.0147 8.99728 10.9604 9.01391L4.70213 11.1102C4.63693 11.1315 4.56886 11.1428 4.50025 11.1437C4.352 11.1406 4.20954 11.0858 4.09757 10.9888C3.9856 10.8919 3.91118 10.759 3.88721 10.6132C3.86324 10.4673 3.89122 10.3177 3.96632 10.1902C4.04142 10.0627 4.15889 9.96549 4.29837 9.91531L10.4725 7.81902L16.6551 3.60546C16.7288 3.55559 16.8122 3.52163 16.8998 3.50574C16.9874 3.48986 17.0774 3.49241 17.164 3.51322L23.1153 4.96386L29.1296 0.117222C29.2643 0.0217226 29.431 -0.0176866 29.5944 0.00736405C29.7577 0.0324147 29.9048 0.119952 30.0045 0.251385ZM0 28.3711C0 28.2043 0.066467 28.0444 0.184779 27.9264C0.303091 27.8085 0.463557 27.7422 0.630876 27.7422H2.46042V15.5208C2.46042 15.2428 2.57119 14.9762 2.76838 14.7797C2.96557 14.5831 3.23301 14.4727 3.51188 14.4727H5.46759C5.74646 14.4727 6.0139 14.5831 6.21109 14.7797C6.40827 14.9762 6.51905 15.2428 6.51905 15.5208V27.7422H8.7145V13.4119C8.7145 13.134 8.82528 12.8674 9.02246 12.6708C9.21965 12.4742 9.48709 12.3638 9.76596 12.3638H11.7217C12.0005 12.3638 12.268 12.4742 12.4652 12.6708C12.6624 12.8674 12.7731 13.134 12.7731 13.4119V27.7422H14.9686V8.38082C14.9697 8.10318 15.0808 7.83722 15.2778 7.64089C15.4747 7.44456 15.7415 7.33378 16.02 7.33268H17.98C18.2585 7.33378 18.5253 7.44456 18.7222 7.64089C18.9192 7.83722 19.0303 8.10318 19.0314 8.38082V27.7422H21.2269V13.4119C21.2269 13.134 21.3376 12.8674 21.5348 12.6708C21.732 12.4742 21.9995 12.3638 22.2783 12.3638H24.234C24.5129 12.3638 24.7804 12.4742 24.9775 12.6708C25.1747 12.8674 25.2855 13.134 25.2855 13.4119V27.7422H27.481V6.63671C27.481 6.35872 27.5917 6.09212 27.7889 5.89555C27.9861 5.69899 28.2535 5.58856 28.5324 5.58856H30.4881C30.767 5.58856 31.0344 5.69899 31.2316 5.89555C31.4288 6.09212 31.5396 6.35872 31.5396 6.63671V27.7422H33.3691C33.5364 27.7422 33.6969 27.8085 33.8152 27.9264C33.9335 28.0444 34 28.2043 34 28.3711C34 28.5379 33.9335 28.6979 33.8152 28.8158C33.6969 28.9337 33.5364 29 33.3691 29H0.630876C0.463557 29 0.303091 28.9337 0.184779 28.8158C0.066467 28.6979 0 28.5379 0 28.3711ZM28.7427 27.7422H30.2778V6.84633H28.7427V27.7422ZM22.4886 27.7422H24.0238V13.6216H22.4886V27.7422ZM16.2303 27.7422H17.7697V8.59045H16.2303V27.7422ZM9.97625 27.7422H11.5324V13.6216H9.97625V27.7422ZM3.72217 27.7422H5.2573V15.7304H3.72217V27.7422Z" fill="white"/>
</svg>
