<svg width="35" height="33" viewBox="0 0 35 33" fill="none" xmlns="http://www.w3.org/2000/svg">
<path d="M11.2186 5.27899H19.1387C19.3137 5.27899 19.4816 5.20946 19.6054 5.08568C19.7291 4.96191 19.7987 4.79403 19.7987 4.61899C19.7987 4.44395 19.7291 4.27607 19.6054 4.1523C19.4816 4.02852 19.3137 3.95898 19.1387 3.95898H11.2186C11.0436 3.95898 10.8757 4.02852 10.7519 4.1523C10.6281 4.27607 10.5586 4.44395 10.5586 4.61899C10.5586 4.79403 10.6281 4.96191 10.7519 5.08568C10.8757 5.20946 11.0436 5.27899 11.2186 5.27899Z" fill="white"/>
<path d="M25.0787 12.5389C25.0787 12.3639 25.0092 12.196 24.8854 12.0722C24.7616 11.9484 24.5937 11.8789 24.4187 11.8789H11.2186C11.0436 11.8789 10.8757 11.9484 10.7519 12.0722C10.6281 12.196 10.5586 12.3639 10.5586 12.5389C10.5586 12.714 10.6281 12.8818 10.7519 13.0056C10.8757 13.1294 11.0436 13.1989 11.2186 13.1989H24.4187C24.5937 13.1989 24.7616 13.1294 24.8854 13.0056C25.0092 12.8818 25.0787 12.714 25.0787 12.5389Z" fill="white"/>
<path d="M11.2186 9.23993H13.8586C14.0337 9.23993 14.2015 9.1704 14.3253 9.04662C14.4491 8.92285 14.5186 8.75497 14.5186 8.57993C14.5186 8.40488 14.4491 8.23701 14.3253 8.11323C14.2015 7.98946 14.0337 7.91992 13.8586 7.91992H11.2186C11.0436 7.91992 10.8757 7.98946 10.7519 8.11323C10.6281 8.23701 10.5586 8.40488 10.5586 8.57993C10.5586 8.75497 10.6281 8.92285 10.7519 9.04662C10.8757 9.1704 11.0436 9.23993 11.2186 9.23993Z" fill="white"/>
<path d="M24.4201 7.91992H17.16C16.985 7.91992 16.8171 7.98946 16.6933 8.11323C16.5695 8.23701 16.5 8.40488 16.5 8.57993C16.5 8.75497 16.5695 8.92285 16.6933 9.04662C16.8171 9.1704 16.985 9.23993 17.16 9.23993H24.4201C24.5951 9.23993 24.763 9.1704 24.8868 9.04662C25.0105 8.92285 25.0801 8.75497 25.0801 8.57993C25.0801 8.40488 25.0105 8.23701 24.8868 8.11323C24.763 7.98946 24.5951 7.91992 24.4201 7.91992Z" fill="white"/>
<path d="M25.7402 15.8398C24.0433 15.8398 22.3844 16.3431 20.9734 17.2858C19.5624 18.2286 18.4627 19.5687 17.8133 21.1365C17.1639 22.7043 16.994 24.4294 17.325 26.0938C17.6561 27.7582 18.4733 29.287 19.6732 30.4869C20.8731 31.6869 22.402 32.5041 24.0663 32.8351C25.7307 33.1662 27.4559 32.9963 29.0237 32.3469C30.5915 31.6975 31.9315 30.5977 32.8743 29.1867C33.8171 27.7758 34.3203 26.1169 34.3203 24.4199C34.3203 22.1443 33.4163 19.962 31.8073 18.3529C30.1982 16.7438 28.0158 15.8398 25.7402 15.8398ZM25.7402 31.68C24.3043 31.68 22.9007 31.2542 21.7068 30.4564C20.5128 29.6587 19.5823 28.5248 19.0328 27.1982C18.4833 25.8716 18.3395 24.4119 18.6197 23.0035C18.8998 21.5952 19.5913 20.3016 20.6066 19.2863C21.6219 18.2709 22.9155 17.5795 24.3239 17.2994C25.7322 17.0192 27.1919 17.163 28.5185 17.7125C29.8451 18.262 30.979 19.1925 31.7767 20.3864C32.5745 21.5804 33.0003 22.984 33.0003 24.4199C33.0003 26.3454 32.2354 28.192 30.8739 29.5535C29.5123 30.9151 27.6657 31.68 25.7402 31.68Z" fill="white"/>
<path d="M16.1701 29.0402H7.92006V3.96003C7.92005 2.98449 7.55784 2.04369 6.90365 1.32001H25.0802C25.7804 1.32001 26.4519 1.59815 26.947 2.09325C27.4421 2.58835 27.7202 3.25985 27.7202 3.96003V13.8601C27.7202 14.0352 27.7897 14.203 27.9135 14.3268C28.0373 14.4506 28.2052 14.5201 28.3802 14.5201C28.5553 14.5201 28.7231 14.4506 28.8469 14.3268C28.9707 14.203 29.0402 14.0352 29.0402 13.8601V3.96003C29.0402 2.90977 28.623 1.90252 27.8804 1.15987C27.1377 0.417216 26.1305 0 25.0802 0H3.96003C2.90977 0 1.90252 0.417216 1.15987 1.15987C0.417216 1.90252 0 2.90977 0 3.96003V9.90008C0 10.0751 0.0695362 10.243 0.193311 10.3668C0.317086 10.4905 0.484961 10.5601 0.660005 10.5601H6.60005V29.7002C6.60005 29.8753 6.66959 30.0431 6.79336 30.1669C6.91714 30.2907 7.08501 30.3602 7.26006 30.3602H16.1701C16.3452 30.3602 16.513 30.2907 16.6368 30.1669C16.7606 30.0431 16.8301 29.8753 16.8301 29.7002C16.8301 29.5252 16.7606 29.3573 16.6368 29.2335C16.513 29.1098 16.3452 29.0402 16.1701 29.0402ZM1.32001 3.96003C1.32001 3.25985 1.59815 2.58835 2.09325 2.09325C2.58835 1.59815 3.25985 1.32001 3.96003 1.32001C4.66021 1.32001 5.33171 1.59815 5.82681 2.09325C6.32191 2.58835 6.60005 3.25985 6.60005 3.96003V9.24007H1.32001V3.96003Z" fill="white"/>
<path d="M26.3981 24.1469V20.4608C26.3981 20.2857 26.3286 20.1179 26.2048 19.9941C26.081 19.8703 25.9132 19.8008 25.7381 19.8008C25.5631 19.8008 25.3952 19.8703 25.2714 19.9941C25.1477 20.1179 25.0781 20.2857 25.0781 20.4608V24.4208C25.0789 24.5956 25.1489 24.7629 25.2728 24.8861L27.2528 26.8661C27.3791 26.9743 27.5415 27.0308 27.7076 27.0243C27.8737 27.0179 28.0313 26.9491 28.1488 26.8315C28.2664 26.714 28.3352 26.5564 28.3417 26.3903C28.3481 26.2242 28.2916 26.0618 28.1835 25.9355L26.3981 24.1469Z" fill="white"/>
<path d="M11.2186 25.0801C11.0436 25.0801 10.8757 25.1496 10.7519 25.2734C10.6281 25.3972 10.5586 25.565 10.5586 25.7401C10.5586 25.9151 10.6281 26.083 10.7519 26.2068C10.8757 26.3306 11.0436 26.4001 11.2186 26.4001H13.8586C14.0337 26.4001 14.2015 26.3306 14.3253 26.2068C14.4491 26.083 14.5186 25.9151 14.5186 25.7401C14.5186 25.565 14.4491 25.3972 14.3253 25.2734C14.2015 25.1496 14.0337 25.0801 13.8586 25.0801H11.2186Z" fill="white"/>
</svg>
