<svg width="25" height="35" viewBox="0 0 25 35" fill="none" xmlns="http://www.w3.org/2000/svg">
<path d="M23.8734 14.3882L23.3205 13.5129C23.1445 13.2453 23.0533 12.9299 23.059 12.6086C23.0647 12.2872 23.1672 11.9753 23.3527 11.7144L23.785 11.0799C24.0095 10.7507 24.1575 10.3746 24.218 9.97945C24.2785 9.58434 24.2499 9.18053 24.1343 8.79817C24.0188 8.41581 23.8193 8.0648 23.5507 7.77136C23.2821 7.47792 22.9514 7.24965 22.5833 7.10359L21.6297 6.72489C21.3319 6.61293 21.0748 6.41197 20.8926 6.14871C20.7104 5.88546 20.6118 5.57238 20.6099 5.25109L20.5911 4.48071C20.5813 4.08108 20.4824 3.68885 20.3016 3.33332C20.1209 2.97778 19.863 2.66814 19.5473 2.42751C19.2316 2.18688 18.8662 2.02149 18.4784 1.9437C18.0906 1.8659 17.6904 1.87771 17.3078 1.97824L16.3136 2.23903C16.0079 2.32543 15.6834 2.31564 15.3833 2.21095C15.0832 2.10626 14.8217 1.91165 14.6337 1.653L14.1687 1.0415C13.9285 0.723961 13.6204 0.4654 13.2675 0.285127C12.9146 0.104855 12.526 0.00752926 12.1307 0.000419729C11.7353 -0.00668981 11.3435 0.0766005 10.9845 0.24407C10.6255 0.411539 10.3085 0.658859 10.0573 0.96756L9.40507 1.76941C9.20741 2.02092 8.93887 2.20579 8.63499 2.29955C8.33111 2.39332 8.00623 2.39155 7.70337 2.29448L6.97358 2.07516C6.59443 1.96071 6.19459 1.93444 5.80398 1.9983C5.41337 2.06217 5.0421 2.21452 4.71795 2.44397C4.3938 2.67341 4.12516 2.974 3.93213 3.32324C3.73911 3.67249 3.62669 4.06135 3.60329 4.46073L3.54153 5.49739C3.52805 5.81831 3.41844 6.12752 3.22723 6.38403C3.03601 6.64054 2.77221 6.83224 2.4708 6.93373L1.75188 7.18902C1.37899 7.32208 1.04064 7.53857 0.762078 7.82235C0.483519 8.10613 0.271949 8.44986 0.143161 8.82789C0.0143733 9.20591 -0.0283064 9.60846 0.0183072 10.0055C0.0649208 10.4025 0.199624 10.7838 0.412363 11.1208L0.964772 11.9951C1.14069 12.2627 1.23193 12.5781 1.22637 12.8993C1.22081 13.2205 1.11871 13.5325 0.933642 13.7937L0.500807 14.4287C0.276315 14.7578 0.128278 15.1339 0.0677556 15.529C0.00723289 15.9241 0.035789 16.3279 0.151292 16.7102C0.266794 17.0926 0.466257 17.4436 0.734776 17.737C1.0033 18.0305 1.33393 18.2588 1.70198 18.4049L2.65807 18.7841C2.95588 18.8961 3.21293 19.0971 3.39509 19.3604C3.57724 19.6236 3.67588 19.9367 3.6779 20.2579L3.69668 21.0283C3.70295 21.4286 3.80041 21.822 3.98148 22.1781C4.16255 22.5341 4.42236 22.8431 4.74072 23.0811C4.80693 23.1311 4.8761 23.1766 4.94528 23.2205V31.6087C4.94519 31.7033 4.97094 31.7961 5.01968 31.8768C5.06843 31.9576 5.13827 32.0231 5.22152 32.0663C5.30477 32.1094 5.39819 32.1285 5.49147 32.1213C5.58475 32.1142 5.67428 32.0812 5.75018 32.0259L8.13473 30.2898L10.6077 32.0289C10.6839 32.0825 10.7731 32.1139 10.8657 32.1198C10.9583 32.1257 11.0508 32.1059 11.133 32.0624C11.2153 32.019 11.2842 31.9536 11.3322 31.8733C11.3803 31.7931 11.4057 31.7011 11.4057 31.6072V25.3813C11.6488 25.4592 11.9018 25.5012 12.1567 25.5062H12.2061C12.4338 25.5056 12.6605 25.4755 12.8806 25.4167V34.4864C12.8807 34.5809 12.9065 34.6736 12.9553 34.7542C13.0041 34.8348 13.0739 34.9003 13.1571 34.9434C13.2403 34.9865 13.3336 35.0056 13.4268 34.9986C13.5201 34.9915 13.6096 34.9587 13.6855 34.9036L16.07 33.169L18.5406 34.9081C18.6168 34.9616 18.706 34.993 18.7987 34.9989C18.8913 35.0048 18.9837 34.9849 19.066 34.9415C19.1482 34.8981 19.2172 34.8327 19.2653 34.7525C19.3134 34.6722 19.3389 34.5802 19.339 34.4864V23.2055C19.4161 23.1616 19.4922 23.1151 19.5663 23.0627C19.893 22.8361 20.1637 22.5363 20.3573 22.1868C20.5509 21.8373 20.6622 21.4474 20.6825 21.0473L20.7443 20.0106C20.7576 19.6897 20.8672 19.3804 21.0584 19.1239C21.2496 18.8673 21.5135 18.6757 21.815 18.5743L22.5334 18.3185C22.9063 18.1856 23.2447 17.9693 23.5233 17.6856C23.802 17.402 24.0136 17.0583 24.1424 16.6804C24.2713 16.3024 24.314 15.8999 24.2674 15.5029C24.2209 15.1059 24.0862 14.7252 23.8734 14.3882ZM10.3898 30.625L8.42032 29.2406C8.3341 29.1797 8.23128 29.1474 8.12611 29.1483C8.02094 29.1491 7.91861 29.1829 7.83332 29.2451L5.96165 30.606V23.5897C6.30168 23.6367 6.64751 23.6157 6.97951 23.5278L7.97414 23.2675C8.2799 23.1814 8.60433 23.1913 8.90438 23.296C9.20442 23.4006 9.4659 23.5951 9.6541 23.8535L10.1171 24.4655C10.1998 24.5732 10.2905 24.6744 10.3883 24.7683L10.3898 30.625ZM18.3242 33.5037L16.3547 32.1188C16.2684 32.0579 16.1656 32.0256 16.0604 32.0264C15.9553 32.0272 15.8529 32.0611 15.7677 32.1233L13.896 33.4872V24.8787C14.0168 24.7754 14.1285 24.6617 14.23 24.539L14.8827 23.7366C15.0797 23.4846 15.3481 23.2993 15.6519 23.2055C15.9558 23.1116 16.2808 23.1138 16.5834 23.2115L17.3137 23.4314C17.6409 23.5307 17.9841 23.5646 18.3242 23.5313V33.5037ZM23.1817 16.3456C23.1076 16.5799 22.9797 16.793 22.8083 16.9676C22.6369 17.1422 22.4271 17.2731 22.196 17.3498L21.477 17.6061C20.9875 17.775 20.5594 18.0885 20.2479 18.506C19.9365 18.9235 19.756 19.4259 19.7299 19.9482L19.6681 20.9843C19.6537 21.229 19.5848 21.4671 19.4665 21.681C19.3483 21.8949 19.1838 22.079 18.9853 22.2196C18.7867 22.3602 18.5594 22.4535 18.3202 22.4928C18.0809 22.532 17.836 22.5161 17.6037 22.4462L16.8735 22.2263C16.3791 22.0721 15.8504 22.0713 15.3556 22.2242C14.8608 22.377 14.4228 22.6764 14.0981 23.0836L13.4454 23.883C13.2965 24.0781 13.1032 24.234 12.882 24.3373C12.6607 24.4405 12.418 24.4881 12.1745 24.476C11.9313 24.477 11.6914 24.4197 11.4744 24.3088C11.2573 24.1979 11.0694 24.0366 10.9259 23.838L10.4629 23.229C10.2228 22.9049 9.91133 22.6418 9.55319 22.4605C9.19506 22.2791 8.80009 22.1846 8.39957 22.1844C8.17011 22.1846 7.94163 22.2145 7.71968 22.2733L6.72455 22.5336C6.49012 22.595 6.24502 22.602 6.00752 22.5543C5.77001 22.5065 5.54623 22.4051 5.35287 22.2578C5.1595 22.1104 5.00154 21.9207 4.89076 21.703C4.77998 21.4853 4.71923 21.2451 4.71305 21.0003L4.69378 20.23C4.68644 19.7068 4.52395 19.1979 4.22734 18.7692C3.93072 18.3405 3.51365 18.0117 3.03013 17.8254L2.07453 17.4462C1.84897 17.3566 1.64634 17.2167 1.48176 17.0369C1.31719 16.857 1.19491 16.6419 1.12408 16.4076C1.05325 16.1733 1.03568 15.9258 1.07269 15.6837C1.1097 15.4415 1.20033 15.2109 1.33782 15.0092L1.77066 14.3742C2.0681 13.9462 2.23179 13.4378 2.2406 12.9148C2.24941 12.3918 2.10293 11.8781 1.82007 11.4401L1.26716 10.5658C1.13704 10.3592 1.05473 10.1256 1.02637 9.88238C0.998015 9.63915 1.02434 9.39259 1.10338 9.16109C1.18242 8.92959 1.31215 8.71912 1.48287 8.54539C1.65359 8.37165 1.86091 8.23914 2.08935 8.15773L2.80877 7.90194C3.29835 7.73269 3.7265 7.41892 4.03794 7.00116C4.34938 6.5834 4.52981 6.08083 4.55592 5.55834L4.61769 4.52218C4.63232 4.2777 4.70138 4.03972 4.81972 3.826C4.93806 3.61229 5.10261 3.42836 5.30109 3.28795C5.49958 3.14755 5.72687 3.05429 5.96599 3.01514C6.20511 2.97599 6.44989 2.99196 6.68206 3.06186L7.41185 3.28119C7.90634 3.43558 8.43527 3.43641 8.93023 3.28357C9.42519 3.13073 9.86341 2.83126 10.1882 2.42388L10.8404 1.62453C10.9943 1.43518 11.1886 1.28347 11.4087 1.18074C11.6287 1.07801 11.8689 1.02692 12.1113 1.0313C12.3536 1.03567 12.5919 1.09539 12.8082 1.20599C13.0245 1.31659 13.2133 1.47521 13.3604 1.66999L13.8229 2.2775C14.1331 2.69626 14.5605 3.01123 15.0498 3.18162C15.539 3.35202 16.0676 3.36999 16.5671 3.23322L17.5613 2.97244C17.7958 2.91097 18.041 2.90385 18.2786 2.95159C18.5162 2.99934 18.74 3.10072 18.9335 3.24818C19.1269 3.39564 19.2849 3.58536 19.3957 3.80319C19.5065 4.02102 19.5672 4.26133 19.5732 4.50619L19.592 5.27657C19.5995 5.79974 19.7622 6.30859 20.0588 6.73728C20.3555 7.16597 20.7726 7.49477 21.2562 7.68112L22.2118 8.06031C22.4373 8.14982 22.6399 8.28969 22.8045 8.46949C22.9691 8.64929 23.0914 8.86436 23.1622 9.09864C23.233 9.33292 23.2506 9.58036 23.2136 9.82247C23.1766 10.0646 23.086 10.2951 22.9485 10.4968L22.5156 11.1313C22.2179 11.5592 22.054 12.0676 22.0452 12.5907C22.0364 13.1138 22.1831 13.6276 22.4662 14.0654L23.0186 14.9412C23.1537 15.1456 23.2389 15.3795 23.2673 15.6236C23.2956 15.8677 23.2663 16.1152 23.1817 16.3456ZM12.1429 4.75C10.5774 4.7499 9.04693 5.2192 7.74517 6.09855C6.44341 6.97791 5.42878 8.22782 4.82958 9.69024C4.23038 11.1526 4.07352 12.7619 4.37885 14.3144C4.68418 15.867 5.43797 17.2931 6.54491 18.4125C7.65186 19.5319 9.06223 20.2942 10.5977 20.6031C12.1331 20.9121 13.7247 20.7537 15.1711 20.148C16.6175 19.5423 17.8538 18.5166 18.7237 17.2004C19.5935 15.8843 20.0579 14.337 20.058 12.754C20.0559 10.632 19.2213 8.59756 17.7374 7.09701C16.2536 5.59645 14.2416 4.75238 12.1429 4.75ZM12.1429 19.7289C10.7783 19.729 9.44434 19.3199 8.30968 18.5534C7.17503 17.7869 6.29067 16.6974 5.76844 15.4227C5.24621 14.1479 5.10957 12.7453 5.3758 11.392C5.64203 10.0388 6.29918 8.79577 7.26412 7.82017C8.22907 6.84457 9.45848 6.18021 10.7969 5.91112C12.1353 5.64202 13.5225 5.78028 14.7832 6.30841C16.0439 6.83653 17.1213 7.7308 17.8793 8.87811C18.6373 10.0254 19.0418 11.3743 19.0416 12.754C19.0394 14.6033 18.3118 16.3761 17.0185 17.6837C15.7252 18.9912 13.9718 19.7267 12.1429 19.7289ZM16.2326 11.3397L13.9563 10.9225L12.5762 8.63984C12.5298 8.56251 12.4639 8.49897 12.3854 8.45567C12.3068 8.41237 12.2183 8.39085 12.1289 8.39328C12.0394 8.39572 11.9522 8.42203 11.876 8.46954C11.7999 8.51705 11.7375 8.58408 11.6952 8.66382L10.5993 10.7242L8.02553 11.3457C7.9387 11.3669 7.85895 11.4109 7.79432 11.4733C7.72968 11.5356 7.68246 11.6141 7.6574 11.7008C7.63234 11.7875 7.63034 11.8793 7.6516 11.9671C7.67286 12.0548 7.71662 12.1353 7.77848 12.2005L9.37592 13.8906L9.16543 16.5579C9.15821 16.6481 9.17466 16.7385 9.21311 16.8202C9.25156 16.9018 9.31064 16.9717 9.3844 17.0229C9.45815 17.074 9.54395 17.1046 9.63313 17.1115C9.7223 17.1183 9.81169 17.1013 9.89226 17.062L11.9764 16.0463L14.4197 17.0735C14.5023 17.1083 14.5925 17.1204 14.6811 17.1087C14.7698 17.0969 14.8538 17.0617 14.9247 17.0066C14.9955 16.9514 15.0507 16.8783 15.0847 16.7948C15.1187 16.7112 15.1303 16.62 15.1184 16.5304L14.8076 14.2118L16.5286 12.1795C16.5867 12.1107 16.6258 12.0276 16.642 11.9387C16.6582 11.8497 16.6509 11.758 16.6208 11.6728C16.5907 11.5876 16.539 11.5119 16.4707 11.4534C16.4025 11.3949 16.3207 11.3557 16.2326 11.3397ZM13.8871 13.7187C13.8406 13.7737 13.8061 13.838 13.7858 13.9074C13.7656 13.9768 13.76 14.0497 13.7695 14.1214L13.9923 15.7816L12.1553 15.0097C12.0936 14.9835 12.0274 14.9701 11.9606 14.9702C11.8844 14.9701 11.8091 14.9871 11.7402 15.0202L10.2485 15.7471L10.4061 13.7422C10.4119 13.6701 10.4025 13.5975 10.3786 13.5293C10.3547 13.4611 10.3167 13.3988 10.2673 13.3465L9.12293 12.1365L11.0559 11.6699C11.1256 11.653 11.1909 11.6215 11.2477 11.5773C11.3045 11.5332 11.3514 11.4774 11.3854 11.4136L12.1701 9.93879L13.2077 11.6549C13.2451 11.7167 13.295 11.7697 13.3541 11.8106C13.4132 11.8515 13.4801 11.8793 13.5506 11.8922L15.1812 12.192L13.8871 13.7187Z" fill="white"/>
</svg>
