<svg width="30" height="35" viewBox="0 0 30 35" fill="none" xmlns="http://www.w3.org/2000/svg">
<path fill-rule="evenodd" clip-rule="evenodd" d="M7.89315 0C6.92148 0 6.11581 0.797425 6.11581 1.76909V1.8846H2.28061C1.02777 1.8846 0 2.90858 0 4.16049V28.4245C0 29.6764 1.02778 30.7016 2.28061 30.7016H14.8835C14.9361 30.7006 14.9885 30.6926 15.0391 30.678C16.2675 33.2327 18.8874 35 21.9127 35C26.1121 35 29.5301 31.5939 29.5301 27.405C29.5301 23.6925 26.8447 20.5951 23.3105 19.9385V4.16049C23.3105 2.90858 22.2828 1.8846 21.0299 1.8846H17.1947V1.76909C17.1947 0.797425 16.3891 0 15.4174 0H7.89315ZM7.89315 1.2069H15.4174C15.7434 1.2069 15.9878 1.44729 15.9878 1.76909V3.20346C15.9878 3.52526 15.7434 3.76448 15.4174 3.76448H7.89315C7.56711 3.76448 7.32388 3.52526 7.32388 3.20346V1.76909C7.32388 1.44729 7.56711 1.2069 7.89315 1.2069ZM2.28061 3.08678H6.11581V3.20346C6.11581 4.17513 6.92148 4.97138 7.89315 4.97138H15.4174C16.3891 4.97138 17.1947 4.17513 17.1947 3.20346V3.08678H21.0299C21.6371 3.08678 22.1037 3.55844 22.1037 4.16049V19.8124C22.04 19.8109 21.9767 19.8101 21.9127 19.8101C17.7133 19.8101 14.2954 23.2161 14.2954 27.405C14.2954 28.1293 14.3969 28.8296 14.5876 29.4935H2.28061C1.67339 29.4935 1.2069 29.0266 1.2069 28.4245V4.16049C1.2069 3.55844 1.6734 3.08678 2.28061 3.08678ZM9.08708 7.65625C9.00055 7.65917 8.91566 7.68069 8.83818 7.71933C8.76069 7.75797 8.69243 7.81283 8.63803 7.88018L6.42814 10.624L5.27899 9.43477C5.16828 9.31997 5.01662 9.25366 4.85716 9.25035C4.69771 9.24704 4.54342 9.30699 4.42804 9.41709C4.37049 9.472 4.32436 9.53773 4.29231 9.61053C4.26025 9.68332 4.24291 9.76173 4.24126 9.84125C4.23962 9.92077 4.25371 9.99983 4.28273 10.0739C4.31175 10.1479 4.35513 10.2155 4.41036 10.2728L6.03566 11.9558C6.09509 12.0176 6.167 12.066 6.2466 12.0978C6.3262 12.1296 6.41166 12.1441 6.4973 12.1404C6.58294 12.1366 6.66679 12.1146 6.74327 12.0758C6.81975 12.0371 6.8871 11.9825 6.94083 11.9157L9.57738 8.63803C9.67742 8.5139 9.72427 8.35523 9.70771 8.19668C9.69114 8.03812 9.61251 7.89256 9.48899 7.79179C9.37583 7.69946 9.23304 7.65131 9.08708 7.65625ZM12.2057 10.0547C12.1264 10.0544 12.0479 10.0697 11.9746 10.0997C11.9012 10.1298 11.8345 10.174 11.7783 10.2298C11.722 10.2856 11.6773 10.352 11.6467 10.4251C11.6161 10.4982 11.6002 10.5766 11.5999 10.6558C11.5996 10.7355 11.615 10.8144 11.6454 10.888C11.6757 10.9616 11.7203 11.0286 11.7766 11.0849C11.8329 11.1412 11.8998 11.1858 11.9735 11.2161C12.0471 11.2465 12.126 11.2619 12.2057 11.2616H18.4641C18.5434 11.2615 18.622 11.2457 18.6952 11.2151C18.7684 11.1846 18.8349 11.1399 18.8909 11.0836C18.9468 11.0273 18.9911 10.9606 19.0212 10.8872C19.0513 10.8138 19.0667 10.7352 19.0664 10.6558C19.0657 10.4964 19.0021 10.3437 18.8892 10.231C18.7764 10.1184 18.6235 10.055 18.4641 10.0547H12.2057ZM9.08708 14.6324C9.00055 14.6354 8.91566 14.6569 8.83818 14.6955C8.76069 14.7342 8.69243 14.789 8.63803 14.8564L6.42814 17.6002L5.27899 16.411C5.16765 16.2968 5.01564 16.2314 4.85619 16.2289C4.69674 16.2265 4.54281 16.2873 4.42804 16.398C4.31324 16.5087 4.24693 16.6604 4.24362 16.8198C4.24031 16.9793 4.30026 17.1336 4.41036 17.249L6.03566 18.932C6.09509 18.9938 6.167 19.0422 6.2466 19.074C6.3262 19.1058 6.41166 19.1203 6.4973 19.1165C6.58294 19.1128 6.66679 19.0908 6.74327 19.052C6.81975 19.0133 6.8871 18.9587 6.94083 18.8919L9.57738 15.613C9.67742 15.4889 9.72427 15.3302 9.70771 15.1717C9.69114 15.0131 9.61251 14.8676 9.48899 14.7668C9.37567 14.6749 9.23289 14.6272 9.08708 14.6324ZM12.2057 17.0297C12.1263 17.0294 12.0477 17.0448 11.9743 17.0749C11.9009 17.105 11.8341 17.1493 11.7779 17.2052C11.7216 17.2612 11.6769 17.3277 11.6464 17.4009C11.6158 17.4741 11.6 17.5527 11.5999 17.632C11.5996 17.7116 11.615 17.7906 11.6454 17.8642C11.6757 17.9378 11.7203 18.0047 11.7766 18.0611C11.8329 18.1174 11.8998 18.162 11.9735 18.1923C12.0471 18.2227 12.126 18.2381 12.2057 18.2378H18.4641C18.5434 18.2376 18.622 18.2218 18.6952 18.1913C18.7684 18.1608 18.8349 18.1161 18.8909 18.0598C18.9468 18.0035 18.9911 17.9368 19.0212 17.8634C19.0513 17.79 19.0667 17.7113 19.0664 17.632C19.0661 17.4724 19.0025 17.3194 18.8896 17.2065C18.7767 17.0936 18.6237 17.03 18.4641 17.0297H12.2057ZM21.9127 21.017C25.462 21.017 28.3267 23.8705 28.3267 27.405C28.3267 30.9395 25.462 33.7931 21.9127 33.7931C18.3634 33.7931 15.5023 30.9395 15.5023 27.405C15.5023 23.8705 18.3634 21.017 21.9127 21.017ZM9.08708 21.6098C9.00036 21.613 8.91536 21.6349 8.83786 21.674C8.76037 21.713 8.69221 21.7683 8.63803 21.8361L6.42814 24.5811L5.27899 23.3919C5.16845 23.2769 5.01688 23.2104 4.85742 23.2068C4.69796 23.2033 4.54359 23.263 4.42804 23.3729C4.37049 23.4278 4.32436 23.4936 4.29231 23.5664C4.26025 23.6392 4.24291 23.7176 4.24126 23.7971C4.23962 23.8766 4.25371 23.9557 4.28273 24.0297C4.31175 24.1038 4.35513 24.1714 4.41036 24.2286L6.03566 25.9082C6.09509 25.97 6.167 26.0184 6.2466 26.0502C6.3262 26.082 6.41166 26.0965 6.4973 26.0927C6.58294 26.0889 6.66679 26.0669 6.74327 26.0282C6.81975 25.9895 6.8871 25.9349 6.94083 25.8681L9.57738 22.5939C9.62764 22.5323 9.66523 22.4614 9.688 22.3853C9.71077 22.3091 9.71826 22.2292 9.71004 22.1501C9.70183 22.071 9.67807 21.9943 9.64014 21.9245C9.6022 21.8546 9.55083 21.7929 9.48898 21.743C9.3755 21.6515 9.23274 21.6042 9.08708 21.6098ZM24.158 24.6565C24.1265 24.6556 24.0949 24.6572 24.0637 24.6613C23.906 24.6799 23.762 24.76 23.663 24.8841L20.7494 28.5719L19.1677 26.9065C19.0583 26.7907 18.9076 26.7229 18.7484 26.7179C18.5892 26.7128 18.4345 26.7708 18.318 26.8794C18.2601 26.9339 18.2136 26.9994 18.1811 27.0721C18.1487 27.1447 18.1309 27.223 18.1288 27.3025C18.1267 27.3821 18.1404 27.4612 18.169 27.5354C18.1976 27.6097 18.2407 27.6775 18.2956 27.735L20.3535 29.9084C20.4129 29.9708 20.485 30.0197 20.565 30.0519C20.6449 30.084 20.7308 30.0987 20.8169 30.0949C20.903 30.0911 20.9873 30.069 21.0641 30.0299C21.1409 29.9908 21.2084 29.9357 21.2622 29.8683L24.6071 25.6324C24.706 25.5071 24.7513 25.3477 24.733 25.1891C24.7146 25.0304 24.6342 24.8856 24.5092 24.7861C24.4089 24.7068 24.2858 24.6614 24.158 24.6565Z" fill="white"/>
</svg>
