<svg width="36" height="35" viewBox="0 0 36 35" fill="none" xmlns="http://www.w3.org/2000/svg">
<path d="M35.3988 22.3117C35.0687 21.7376 34.5292 21.3185 33.8971 21.1449C33.2649 20.9713 32.5909 21.0572 32.0206 21.384L31.85 21.4775C31.7956 21.2905 31.7197 21.1107 31.6237 20.9417C31.2928 20.3666 30.7517 19.9471 30.118 19.7743C29.4842 19.6015 28.8089 19.6893 28.2386 20.0187L27.3903 20.5093C27.0293 20.0052 26.4981 19.6538 25.898 19.5221C25.298 19.3904 24.6711 19.4876 24.1373 19.7953L19.2887 22.5897L14.6434 20.5752C13.2053 19.9513 11.594 20.1462 9.85476 21.1543L4.83715 24.0626L4.73111 23.8762C4.55735 23.5712 4.27158 23.3486 3.93641 23.2572C3.60125 23.1658 3.24404 23.2129 2.94306 23.3883L0.653253 24.7309C0.352964 24.9078 0.134018 25.1982 0.0444228 25.5387C-0.045172 25.8791 0.00189832 26.2417 0.175312 26.547L4.60663 34.3363C4.78043 34.6412 5.06635 34.8637 5.40161 34.9548C5.73687 35.0459 6.09404 34.9982 6.39469 34.8222L8.68296 33.4811C8.98313 33.3045 9.2021 33.0143 9.2919 32.6742C9.3817 32.334 9.33501 31.9716 9.16205 31.6663L9.09443 31.5473C10.2545 30.8948 11.6215 30.7337 12.898 31.0993L18.9341 32.7398C19.4735 32.8888 20.0298 32.9654 20.5888 32.9676C21.6627 32.9625 22.7157 32.6663 23.639 32.1097L34.4906 25.7518C35.0593 25.4168 35.4742 24.8668 35.6444 24.2221C35.8146 23.5773 35.7263 22.8905 35.3988 22.3117ZM28.7303 20.8977C29.0719 20.6994 29.4768 20.646 29.8569 20.7489C30.2371 20.8519 30.5619 21.1029 30.7608 21.4475C30.8539 21.6115 30.9153 21.7921 30.9418 21.9794L22.9578 26.391C23.026 26.0592 23.0277 25.7168 22.9628 25.3843C22.8979 25.0518 22.7678 24.736 22.5801 24.4556L28.7303 20.8977ZM24.6271 20.6746C24.9311 20.4992 25.2861 20.4372 25.6304 20.4995C25.9747 20.5617 26.2867 20.7443 26.5124 21.0154L21.8198 23.7299C21.7063 23.6578 21.5887 23.5927 21.4675 23.5349L21.4513 23.5279L20.4394 23.0892L24.6271 20.6746ZM8.32873 32.4123C8.3186 32.4529 8.30058 32.4911 8.2757 32.5246C8.25083 32.5581 8.21961 32.5862 8.18389 32.6072L5.89523 33.9483C5.82311 33.9892 5.7381 33.9998 5.65835 33.978C5.57861 33.9561 5.51043 33.9035 5.46839 33.8313L1.03745 26.04C0.997421 25.968 0.986505 25.883 1.007 25.803C1.0275 25.723 1.07781 25.6542 1.14733 25.6111L3.44137 24.2657C3.51335 24.2242 3.59856 24.2132 3.67848 24.2352C3.7584 24.2571 3.82658 24.3101 3.86821 24.3827L8.29876 32.1721C8.31925 32.2081 8.33255 32.2478 8.33789 32.289C8.34323 32.3302 8.34051 32.3721 8.32988 32.4123H8.32873ZM34.6808 23.9604C34.6309 24.1518 34.544 24.3313 34.4253 24.4885C34.3066 24.6457 34.1584 24.7774 33.9892 24.876L23.1414 31.2346C22.5531 31.5904 21.8995 31.8208 21.2204 31.9116C20.5414 32.0024 19.8513 31.9517 19.1923 31.7626L13.1565 30.1225C12.3982 29.9054 11.6052 29.8421 10.8227 29.9363C10.0403 30.0304 9.28383 30.2801 8.59652 30.6711L5.33546 24.9388L10.3488 22.0328C11.8026 21.1901 13.1151 21.0127 14.2519 21.5056L21.0522 24.4545C21.2506 24.5337 21.4305 24.6541 21.5803 24.808C21.7302 24.962 21.8467 25.146 21.9224 25.3483C21.9981 25.5506 22.0312 25.7667 22.0198 25.9828C22.0083 26.1989 21.9525 26.4102 21.8559 26.6031C21.7381 26.8889 21.5423 27.1346 21.2915 27.3113L21.1924 27.3659L21.1701 27.3791C21.0686 27.4287 20.9578 27.4557 20.8452 27.4583C20.7325 27.4609 20.6206 27.4391 20.517 27.3943L13.5238 24.4603C13.4032 24.417 13.2707 24.4223 13.1538 24.4752C13.0369 24.5282 12.9444 24.6246 12.8956 24.7447C12.8467 24.8648 12.8452 24.9994 12.8912 25.1206C12.9373 25.2418 13.0274 25.3405 13.1431 25.3962L20.132 28.3287C20.4032 28.4427 20.6976 28.4881 20.9899 28.4609C21.2822 28.4338 21.5636 28.3348 21.8098 28.1727L32.4966 22.2723C32.839 22.0731 33.2449 22.0188 33.6265 22.1209C34.0081 22.2231 34.3348 22.4736 34.5359 22.8182C34.6334 22.9894 34.6964 23.1784 34.7215 23.3745C34.7465 23.5705 34.7331 23.7697 34.6819 23.9604H34.6808ZM17.9682 10.4598C17.9729 10.3904 17.9634 10.3209 17.9405 10.2555C17.9176 10.19 17.8816 10.13 17.8349 10.0793C17.7882 10.0285 17.7316 9.98802 17.6689 9.96035C17.6061 9.93268 17.5384 9.9184 17.4699 9.9184C17.4015 9.9184 17.3338 9.93268 17.271 9.96035C17.2082 9.98802 17.1517 10.0285 17.105 10.0793C17.0582 10.13 17.0223 10.19 16.9993 10.2555C16.9764 10.3209 16.967 10.3904 16.9716 10.4598C16.9612 11.0316 17.1472 11.5894 17.4977 12.0372C17.8482 12.4851 18.3414 12.7951 18.8926 12.9141V13.733C18.9012 13.8612 18.9574 13.9813 19.0499 14.0691C19.1424 14.1568 19.2643 14.2056 19.3909 14.2056C19.5175 14.2056 19.6394 14.1568 19.7319 14.0691C19.8244 13.9813 19.8806 13.8612 19.8892 13.733V12.9141C20.4321 12.7974 20.919 12.4951 21.2687 12.0578C21.6183 11.6204 21.8095 11.0745 21.8102 10.5112C21.8102 9.27664 20.8409 8.68274 19.8892 8.19763V5.15794C20.1665 5.26758 20.4039 5.46103 20.5693 5.71212C20.7347 5.9632 20.8201 6.2598 20.814 6.56177C20.8232 6.68944 20.8797 6.80883 20.9721 6.89597C21.0645 6.98311 21.186 7.03154 21.3121 7.03154C21.4382 7.03154 21.5597 6.98311 21.652 6.89597C21.7444 6.80883 21.8009 6.68944 21.8102 6.56177C21.8207 5.98983 21.6348 5.432 21.2842 4.98406C20.9337 4.53613 20.4405 4.22603 19.8892 4.10701V3.2881C19.8806 3.15991 19.8244 3.03981 19.7319 2.95209C19.6394 2.86437 19.5175 2.81558 19.3909 2.81558C19.2643 2.81558 19.1424 2.86437 19.0499 2.95209C18.9574 3.03981 18.9012 3.15991 18.8926 3.2881V4.10701C18.3497 4.22373 17.8628 4.52603 17.5131 4.96339C17.1635 5.40076 16.9723 5.94668 16.9716 6.50991C16.9716 7.74451 17.9409 8.3388 18.8926 8.8239V11.8616C18.616 11.7519 18.3792 11.5586 18.2141 11.3079C18.0491 11.0572 17.9638 10.7612 17.9698 10.4598H17.9682ZM20.8143 10.5097C20.8138 10.8036 20.725 11.0904 20.5598 11.3318C20.3945 11.5732 20.1608 11.7577 19.8896 11.8609V9.34293C20.4778 9.68453 20.8159 10.0105 20.8159 10.5097H20.8143ZM17.9698 6.50952C17.9703 6.21559 18.0591 5.92882 18.2244 5.68742C18.3896 5.44602 18.6233 5.26145 18.8945 5.15833V7.67626C18.3079 7.33466 17.9698 7.01022 17.9698 6.50952ZM19.3913 17.0192C21.0495 17.0195 22.6706 16.5207 24.0496 15.5858C25.4285 14.651 26.5033 13.3221 27.1381 11.7672C27.7729 10.2123 27.9392 8.50122 27.6158 6.85041C27.2925 5.19961 26.4942 3.6832 25.3217 2.49296C24.1492 1.30271 22.6554 0.492098 21.029 0.163627C19.4026 -0.164844 17.7168 0.00358367 16.1848 0.647609C14.6527 1.29163 13.3432 2.38233 12.4219 3.78176C11.5006 5.18119 11.0089 6.82649 11.0089 8.5096C11.0113 10.7657 11.8954 12.9287 13.4672 14.5241C15.0389 16.1194 17.17 17.0167 19.3928 17.0192H19.3913ZM19.3913 1.01116C20.8525 1.01085 22.281 1.45036 23.4961 2.27411C24.7112 3.09787 25.6583 4.26885 26.2177 5.63899C26.7771 7.00912 26.9237 8.51686 26.6388 9.97151C26.3539 11.4262 25.6504 12.7624 24.6173 13.8112C23.5841 14.8601 22.2678 15.5744 20.8347 15.8638C19.4015 16.1533 17.916 16.0049 16.566 15.4374C15.216 14.8699 14.0621 13.9088 13.2503 12.6757C12.4384 11.4425 12.0051 9.99272 12.0051 8.5096C12.0072 6.52155 12.7863 4.61555 14.1713 3.20979C15.5563 1.80403 17.4341 1.01332 19.3928 1.01116H19.3913Z" fill="white"/>
</svg>
