<svg width="45" height="45" viewBox="0 0 45 45" fill="none" xmlns="http://www.w3.org/2000/svg">
<circle cx="22.5" cy="22.5" r="22.5" fill="#EA2D3F"/>
<path d="M19.7355 33.4512C19.6749 33.6938 19.6445 33.9062 19.6445 34.1792C19.6445 35.7263 20.9186 37.0003 22.4657 37.0003C24.0127 37.0003 25.2868 35.7263 25.2868 34.1792C25.2868 33.9365 25.2565 33.6938 25.1958 33.4512H19.7355Z" fill="white"/>
<path d="M33.9331 30.3264C33.9027 30.0837 33.8117 29.8713 33.66 29.6893C33.6297 29.659 31.2029 27.0199 31.2029 20.0429C31.2029 14.613 27.5628 12.3379 24.5596 11.6402V10.0628C24.5596 8.94038 23.6192 8 22.4969 8C21.3745 8 20.4038 8.94038 20.4038 10.0628V11.6705C17.4006 12.3682 13.7605 14.613 13.7605 20.0732C13.7605 27.0502 11.3337 29.6893 11.3033 29.6893C11.1213 29.8713 11.0303 30.0837 11 30.3264V32.2374H33.9331V30.3264Z" fill="white"/>
</svg>
