<svg width="36" height="35" viewBox="0 0 36 35" fill="none" xmlns="http://www.w3.org/2000/svg">
<path d="M34.8105 18.2011L32.3853 16.7445C32.219 16.6435 32.1261 16.4998 32.1068 16.3056C31.9946 15.2103 31.7587 14.1305 31.4028 13.0934C31.3409 12.9109 31.3603 12.7439 31.4686 12.5807L33.0119 10.2386C33.4374 9.59383 33.3987 8.78981 32.9229 8.18777L30.6409 5.30962C30.1612 4.70758 29.3876 4.49007 28.6682 4.76196L26.1038 5.72522C25.9181 5.79514 25.7518 5.77572 25.5855 5.67085C24.6263 5.05327 23.5974 4.54833 22.526 4.17934C22.3403 4.11719 22.2243 3.9929 22.1624 3.81034L21.3192 1.20797C21.0832 0.473865 20.4334 0 19.6637 0H16.0008C15.2311 0 14.5813 0.473865 14.3454 1.20797L13.5021 3.81034C13.4403 3.99678 13.3242 4.11719 13.1386 4.17934C12.071 4.54833 11.046 5.04938 10.0907 5.66308C9.9282 5.76795 9.75801 5.78737 9.57235 5.71746L7.00793 4.75031C6.2885 4.47842 5.51492 4.69204 5.0353 5.29797L2.74936 8.17612C2.26974 8.77816 2.23493 9.58606 2.65653 10.2269L4.19596 12.573C4.3004 12.7361 4.3236 12.9031 4.26172 13.0857C3.902 14.1227 3.66606 15.2064 3.55389 16.2979C3.53455 16.4921 3.44172 16.6358 3.2754 16.7368L0.850221 18.1856C0.188809 18.5817 -0.124492 19.3236 0.0456964 20.0732L0.861825 23.6622C1.03201 24.4157 1.63541 24.944 2.40125 25.0139L5.29445 25.278C5.48398 25.2935 5.62709 25.3829 5.73152 25.546C6.29624 26.4316 6.95765 27.2589 7.70029 28.0008C7.83566 28.1367 7.89368 28.2999 7.86661 28.4902L7.47208 31.4072C7.36765 32.1723 7.75057 32.8831 8.43906 33.2172L11.7384 34.8136C12.4307 35.1476 13.2198 35.0039 13.7536 34.4485L15.8036 32.2966C15.9351 32.1568 16.0936 32.0985 16.2832 32.1219C17.3043 32.2306 18.3409 32.2345 19.362 32.1219C19.5554 32.1024 19.7101 32.1607 19.8417 32.3005L21.8878 34.4523C22.2282 34.8097 22.6768 35 23.1371 35C23.3924 35 23.6554 34.9417 23.903 34.8213L27.2061 33.2249C27.8985 32.8909 28.2776 32.1801 28.177 31.4149L27.7863 28.4979C27.7593 28.3037 27.8134 28.1445 27.9527 28.0085C28.6953 27.2667 29.3606 26.4394 29.9214 25.5577C30.0259 25.3945 30.169 25.3091 30.3585 25.2935L33.2556 25.0333C34.0214 24.9634 34.6248 24.4351 34.7989 23.6816L35.615 20.0965C35.7852 19.3391 35.468 18.5973 34.8105 18.2011ZM34.4817 19.8324L33.6617 23.4175C33.6037 23.6738 33.4064 23.8447 33.1473 23.8681L30.2502 24.1283C29.701 24.1788 29.2368 24.4623 28.939 24.9245C28.4207 25.7363 27.8095 26.4937 27.1249 27.1773C26.7304 27.5735 26.5525 28.094 26.6298 28.6494L27.0205 31.5664C27.0553 31.8267 26.9315 32.0558 26.6956 32.1685L23.4001 33.7687C23.1642 33.8814 22.9089 33.8348 22.731 33.6444L20.6849 31.4926C20.3483 31.1392 19.9113 30.9527 19.4355 30.9527C19.3698 30.9527 19.3079 30.9566 19.2421 30.9644C18.3022 31.0654 17.3507 31.0654 16.4108 30.9644C15.8616 30.9061 15.3471 31.0926 14.9681 31.4926L12.9181 33.6444C12.7363 33.8348 12.481 33.8814 12.2451 33.7687L8.94575 32.1685C8.70981 32.0558 8.58604 31.8228 8.62472 31.5664L9.01924 28.6494C9.09273 28.094 8.91868 27.5735 8.52415 27.1773C7.8434 26.4937 7.23227 25.7363 6.71397 24.9207C6.41614 24.4546 5.95199 24.171 5.40275 24.1205L2.50569 23.8564C2.24654 23.8331 2.04927 23.6622 1.99125 23.4058L1.17513 19.8169C1.11711 19.5605 1.22154 19.3197 1.44201 19.1877L3.87106 17.7311C4.35455 17.4398 4.65238 16.9737 4.71039 16.4105C4.81483 15.4045 5.03143 14.414 5.36407 13.4586C5.54586 12.9342 5.47624 12.3865 5.17068 11.9243L3.63125 9.57829C3.48813 9.36078 3.49974 9.09666 3.66219 8.89468L5.94812 6.01654C6.11058 5.81456 6.36199 5.74465 6.60567 5.83398L9.17009 6.80113C9.69613 6.99922 10.2492 6.94096 10.7211 6.638C11.5991 6.0748 12.539 5.61258 13.5215 5.27466C14.0514 5.09211 14.4343 4.69593 14.6084 4.1638L15.4516 1.56142C15.5328 1.31284 15.7417 1.15747 16.0047 1.15747H19.6676C19.9267 1.15747 20.1395 1.31284 20.2207 1.56142L21.0639 4.1638C21.238 4.69593 21.6209 5.09211 22.1508 5.27466C23.1371 5.61647 24.0809 6.07868 24.9628 6.64577C25.4346 6.95261 25.9878 7.01088 26.5138 6.81278L29.0782 5.84952C29.3219 5.7563 29.5733 5.82621 29.7358 6.03207L32.0178 8.91022C32.1803 9.11608 32.1919 9.37632 32.0488 9.59383L30.5055 11.936C30.1999 12.3982 30.1303 12.9458 30.3121 13.4702C30.6409 14.4218 30.8575 15.4162 30.9619 16.4222C31.0199 16.9854 31.3177 17.4514 31.8012 17.7428L34.2264 19.1993C34.4391 19.3353 34.5397 19.58 34.4817 19.8324ZM17.8303 9.20542C13.1154 9.20542 9.27839 13.0585 9.27839 17.7933C9.27839 22.528 13.1154 26.3811 17.8303 26.3811C22.5453 26.3811 26.3823 22.528 26.3823 17.7933C26.3862 13.0546 22.5492 9.20542 17.8303 9.20542ZM17.8303 25.2158C13.7536 25.2158 10.4388 21.8871 10.4388 17.7933C10.4388 13.6994 13.7536 10.3707 17.8303 10.3707C21.9071 10.3707 25.2219 13.6994 25.2219 17.7933C25.2258 21.8871 21.9071 25.2158 17.8303 25.2158Z" fill="white"/>
</svg>
