<svg width="57" height="65" viewBox="0 0 57 65" fill="none" xmlns="http://www.w3.org/2000/svg">
<path d="M26.4675 9.82421V14.068H30.2032C30.2032 11.8322 30.2032 9.59646 30.2032 7.3607H26.4675C26.4675 8.18215 26.4675 9.00276 26.4675 9.82421ZM27.0583 33.7019V32.6629C27.0583 32.065 27.6309 31.5796 28.3364 31.5796C29.0418 31.5796 29.6145 32.065 29.6145 32.6629V33.7019C33.0401 33.957 36.1307 35.2245 38.4574 37.1541C40.9814 39.2465 42.6087 42.1195 42.7959 45.3209H43.5275C44.233 45.3209 44.8056 45.8062 44.8056 46.4042C44.8056 47.0022 44.233 47.4875 43.5275 47.4875H13.1452C12.4397 47.4875 11.8671 47.0022 11.8671 46.4042C11.8671 45.8062 12.4397 45.3209 13.1452 45.3209H13.8768C14.064 42.1195 15.6913 39.2465 18.2153 37.1541C20.542 35.2245 23.6326 33.957 27.0583 33.7019ZM40.2457 45.3209C40.0626 42.7277 38.7301 40.4024 36.6802 38.7031C34.5286 36.9195 31.5809 35.8217 28.3364 35.8217C25.0918 35.8217 22.1442 36.9195 19.9925 38.7031C17.9426 40.4024 16.6101 42.7277 16.427 45.3209H40.2457ZM23.9114 10.8794H6.13483L3.04628 18.2947C2.87419 18.7075 2.75041 19.0991 2.67091 19.4906C2.59342 19.877 2.55618 20.2814 2.55618 20.7266V62.8333H54.1165V20.7266C54.1165 20.2822 54.0793 19.8779 54.0008 19.4906C53.9223 19.0991 53.7975 18.7075 53.6254 18.2947L50.5369 10.8794H32.7594V15.1513C32.7594 15.7493 32.1867 16.2346 31.4813 16.2346H25.1894C24.484 16.2346 23.9114 15.7493 23.9114 15.1513V10.8794ZM32.7594 8.71273H51.2112H51.2212C51.3249 8.71017 51.4265 8.67093 51.508 8.60866L51.5402 8.5771C51.66 8.46621 51.7345 8.30413 51.7345 8.12073V2.75866C51.7345 2.57612 51.66 2.41319 51.5402 2.3023C51.4537 2.2187 51.3349 2.16667 51.2112 2.16667H5.46056C5.3398 2.16667 5.22205 2.21955 5.13249 2.30315C5.01273 2.41404 4.93725 2.57612 4.93725 2.75866V8.12073C4.93725 8.30328 5.01273 8.46535 5.13249 8.57625C5.22205 8.65984 5.3398 8.71273 5.46056 8.71273H23.9114V6.27736C23.9114 5.6794 24.484 5.19403 25.1894 5.19403H31.4813C32.1867 5.19403 32.7594 5.6794 32.7594 6.27736V8.71273ZM3.6491 10.348C3.50418 10.2533 3.36832 10.1475 3.24454 10.0315C2.71217 9.53674 2.38107 8.85945 2.38107 8.12073V2.75866C2.38107 2.01995 2.71217 1.3418 3.24454 0.8479C3.80509 0.325853 4.58905 0 5.46056 0H51.2112C52.0776 0 52.8606 0.325853 53.4232 0.847047C53.9595 1.3418 54.2906 2.01995 54.2906 2.75866V8.12073C54.2906 8.85945 53.9606 9.53675 53.4282 10.0323L53.3356 10.1108C53.237 10.1953 53.1313 10.2738 53.0216 10.3463L56.0327 17.5747C56.2521 18.1011 56.4131 18.6094 56.5167 19.1272C56.6224 19.6493 56.6727 20.1722 56.6727 20.7266V63.9167C56.6727 64.5146 56.1001 65 55.3946 65H1.27809C0.572626 65 0 64.5146 0 63.9167V20.7266C0 20.1722 0.0503194 19.6501 0.154982 19.1272C0.259644 18.6086 0.419657 18.1002 0.639046 17.5747L3.6491 10.348Z" fill="white"/>
</svg>
